<svg aria-hidden="true" style="position: absolute; width: 0; height: 0; overflow: hidden;" version="1.1"
    xmlns="http://www.w3.org/2000/svg" xmlns:xlink="http://www.w3.org/1999/xlink">
    <defs>
        <symbol id="checkMark-icon" viewBox="0 0 56 32">
            <path
                d="M30.605 21.134c-0.341 0.344-0.746 0.616-1.193 0.803s-0.926 0.282-1.41 0.282-0.963-0.096-1.41-0.282c-0.447-0.186-0.852-0.459-1.193-0.803l-16.793-16.83c-0.341-0.344-0.746-0.616-1.193-0.803s-0.926-0.282-1.41-0.282-0.963 0.096-1.41 0.282c-0.447 0.186-0.852 0.459-1.193 0.803-0.683 0.687-1.066 1.616-1.066 2.585s0.383 1.898 1.066 2.585l16.83 16.83c2.063 2.060 4.858 3.217 7.773 3.217s5.711-1.157 7.773-3.217l16.83-16.83c0.677-0.683 1.059-1.605 1.063-2.567 0.003-0.483-0.090-0.961-0.272-1.408s-0.451-0.853-0.791-1.196c-0.341-0.344-0.746-0.616-1.194-0.803s-0.926-0.282-1.41-0.282-0.963 0.096-1.41 0.282c-0.447 0.186-0.852 0.459-1.193 0.803l-16.793 16.83z">
            </path>
        </symbol>
        <symbol id="burger-icon" viewBox="0 0 48 32">
            <path stroke-linejoin="round" stroke-linecap="round" stroke-miterlimit="4" stroke-width="4"
                d="M3 16h42M3 2h42M3 30h42"></path>
        </symbol>
    </defs>
</svg>